# xmcd CD database file
#
# Track frame offsets:
#	183
#	12770
#	41495
#	53358
#	76845
#	102745
#	127395
#	155858
#	182958
#	200308
#	226008
#	253270
#	277695
#	309683
#
# Disc length: 4311 seconds
#
# Revision: 1
# Processed by: cddbd v1.5.2PL0 Copyright (c) Steve Scherf et al.
# Submitted via: CDex 1.51
#
DISCID=ba10d50e
DTITLE=Paolo Tomelleri - Vol. 276 - From Duo To Big Band
DYEAR=1964
DGENRE=Jazz
TTITLE0=King Porter Stomp
TTITLE1=Jubilation
TTITLE2=I Love You
TTITLE3=God Bless The Child
TTITLE4=Sing Sing Sing
TTITLE5=I Hear Music
TTITLE6=Danny Boy
TTITLE7=Promenade Aux Champs
TTITLE8=After You've Gone
TTITLE9=Jive At Five
TTITLE10=Lush Life
TTITLE11=Blue Lou
TTITLE12=Memories Of You
TTITLE13=Esquire Bounce
EXTD=YEAR: 1964
EXTT0=
EXTT1=
EXTT2=
EXTT3=
EXTT4=
EXTT5=
EXTT6=
EXTT7=
EXTT8=
EXTT9=
EXTT10=
EXTT11=
EXTT12=
EXTT13=
PLAYORDER=
